<?xml version="1.0" encoding="UTF-8"?>
<svg width="32px" height="32px" viewBox="0 0 32 32" version="1.1" xmlns="http://www.w3.org/2000/svg" xmlns:xlink="http://www.w3.org/1999/xlink">
    <!-- Generator: Sketch 39.1 (31720) - http://www.bohemiancoding.com/sketch -->
    <title>phone-icon</title>
    <desc>Created with Sketch.</desc>
    <defs>
        <path d="M16,0 C7.16406264,0 0,7.16406264 0,16 C0,24.8354362 7.16406264,32 16,32 C24.8359374,32 32,24.8354362 32,16 C32,7.16406264 24.8359374,0 16,0 L16,0 Z" id="path-1"></path>
        <mask id="mask-2" maskContentUnits="userSpaceOnUse" maskUnits="objectBoundingBox" x="0" y="0" width="32" height="32" fill="white">
            <use xlink:href="#path-1"></use>
        </mask>
        <path d="M18.5656197,18.2765817 C18.2286532,18.2901477 17.9484564,18.3640984 17.7239553,18.4229441 C17.2927069,18.5370201 16.9520895,18.6271141 15.6770649,16.220349 L15.5244385,15.930774 C14.2692438,13.5619866 14.5557047,13.2755257 14.6635168,13.1672125 C14.7213244,13.1094049 14.7848591,13.0552483 14.8505056,12.998443 C14.9489396,12.9125369 15.0504877,12.8229441 15.1510336,12.7229351 L15.1515705,12.7229351 C15.2520805,12.6219239 15.3510515,12.510962 15.4442595,12.3843937 C16.1062729,11.4890738 15.7223803,9.88753468 15.4343803,9.01304698 C15.1432304,8.12764206 14.6474094,7.02657718 13.9370022,6.80730201 C13.4823087,6.66824161 12.0666846,6.54428635 10.9828367,7.62763311 C10.5713826,8.03962416 10.2604385,8.57814765 10.0604564,9.22867114 C9.25004027,11.8651275 10.6625145,15.0927606 12.1510872,17.9021029 C13.6406622,20.7125548 15.5193199,23.6942819 18.1520895,24.5026219 C19.9693244,25.0620134 21.0958747,24.2906488 21.6052617,23.7812617 C22.0130649,23.3734586 22.2526353,22.919302 22.3338881,22.6552483 C22.5088859,22.0859776 22.1796868,21.2536913 21.3542013,20.1817629 C20.7911588,19.4510604 19.6796779,18.2312662 18.5656197,18.2765817 L18.5656197,18.2765817 Z" id="path-3"></path>
        <mask id="mask-4" maskContentUnits="userSpaceOnUse" maskUnits="objectBoundingBox" x="0" y="0" width="12.5557256" height="17.9801585" fill="white">
            <use xlink:href="#path-3"></use>
        </mask>
    </defs>
    <g id="教练界面-1" stroke="none" stroke-width="1" fill="none" fill-rule="evenodd">
        <g id="教练界面" transform="translate(-304.000000, -336.000000)" stroke="#F8BA2A" stroke-width="2">
            <g id="phone-icon" transform="translate(304.000000, 336.000000)">
                <use id="Shape" mask="url(#mask-2)" xlink:href="#path-1"></use>
                <use id="Shape" mask="url(#mask-4)" xlink:href="#path-3"></use>
            </g>
        </g>
    </g>
</svg>