<?xml version="1.0" encoding="UTF-8"?>
<svg width="32px" height="32px" viewBox="0 0 32 32" version="1.1" xmlns="http://www.w3.org/2000/svg" xmlns:xlink="http://www.w3.org/1999/xlink">
    <!-- Generator: Sketch 39.1 (31720) - http://www.bohemiancoding.com/sketch -->
    <title>sign-icon</title>
    <desc>Created with Sketch.</desc>
    <defs>
        <path d="M15.9835764,0 C24.8110487,0 31.9671527,7.15610408 31.9671527,15.9835764 C31.9671527,24.8110487 24.8110487,31.9671527 15.9835764,31.9671527 C7.15610408,31.9671527 0,24.8110487 0,15.9835764 C0,7.15610408 7.15610408,0 15.9835764,0 L15.9835764,0 Z" id="path-1"></path>
        <mask id="mask-2" maskContentUnits="userSpaceOnUse" maskUnits="objectBoundingBox" x="0" y="0" width="31.9671527" height="31.9671527" fill="white">
            <use xlink:href="#path-1"></use>
        </mask>
    </defs>
    <g id="教练界面-1" stroke="none" stroke-width="1" fill="none" fill-rule="evenodd">
        <g id="教练界面" transform="translate(-24.000000, -336.000000)">
            <g id="sign-icon" transform="translate(24.000000, 336.000000)">
                <use id="Shape" stroke="#F8BA2A" mask="url(#mask-2)" stroke-width="2" xlink:href="#path-1"></use>
                <path d="M19.8621152,18.2367816 C19.288414,19.9264368 18.630345,21.3425287 17.8879083,22.4689655 L8.53995403,22.4689655 L8.53995403,23 L22.6125061,23 L22.6125061,22.4689655 L18.5122301,22.4689655 C19.288414,21.2781609 19.9127359,19.9264368 20.4189428,18.3816092 L19.8621152,18.2367816 Z M11.1384828,18.4942529 L10.6154024,18.6712644 C11.17223,19.6528736 11.6278162,20.6827586 11.982161,21.7609195 L12.522115,21.6321839 C12.1171495,20.4413793 11.6446897,19.3954023 11.1384828,18.4942529 L11.1384828,18.4942529 Z M15.036276,18.1724138 L14.496322,18.3333333 C14.9350346,19.3954023 15.2893795,20.5057471 15.5931036,21.6643678 L16.1161841,21.5356322 C15.8124599,20.2643678 15.4412415,19.137931 15.036276,18.1724138 L15.036276,18.1724138 Z M11.2565978,16.7563218 L11.2565978,17.2712644 L19.8789888,17.2712644 L19.8789888,16.7563218 L11.2565978,16.7563218 Z M10.1935633,11.1402299 L11.7796782,11.1402299 C12.1171495,11.816092 12.4208737,12.5402299 12.6571035,13.2804598 L13.1970576,13.0873563 C12.9945748,12.491954 12.7245978,11.8482759 12.3871265,11.1402299 L15.3400002,11.1402299 L15.3400002,10.6252874 L10.4635403,10.6252874 C10.6828966,10.1425287 10.8853794,9.64367816 11.0709886,9.11264368 L10.4972874,9 C9.95733337,10.5770115 9.16427589,11.9770115 8.11811494,13.2 L8.60744829,13.4896552 C9.21489658,12.7816092 9.73797705,12.0091954 10.1935633,11.1402299 L10.1935633,11.1402299 Z M17.3310807,11.1402299 L19.0521841,11.1402299 C19.4908968,11.8804598 19.8621152,12.6367816 20.1827129,13.4091954 L20.7226669,13.2321839 C20.486437,12.5885057 20.1320922,11.8965517 19.676506,11.1402299 L22.8487359,11.1402299 L22.8487359,10.6252874 L17.5841841,10.6252874 C17.7866669,10.1586207 17.9554025,9.65977011 18.1241381,9.11264368 L17.5673105,9 C17.162345,10.3517241 16.5717703,11.5425287 15.7787128,12.5724138 L16.2680461,12.8781609 C16.6730117,12.3632184 17.0273565,11.783908 17.3310807,11.1402299 L17.3310807,11.1402299 Z M15.3737473,13.1678161 C13.3995403,14.616092 10.9360001,15.8229885 8,16.7885057 L8.26997702,17.2712644 C11.2903449,16.2413793 13.720138,15.0344828 15.5593565,13.6505747 C17.5673105,15.1471264 19.9971037,16.354023 22.8318624,17.2873563 L23.118713,16.8045977 C20.334575,15.9195402 17.8710347,14.7126437 15.7449657,13.1678161 L15.3737473,13.1678161 Z" id="签" fill="#F6A623"></path>
            </g>
        </g>
    </g>
</svg>