<?xml version="1.0" encoding="UTF-8"?>
<svg width="18px" height="18px" viewBox="0 0 18 18" version="1.1" xmlns="http://www.w3.org/2000/svg" xmlns:xlink="http://www.w3.org/1999/xlink">
    <!-- Generator: Sketch 39.1 (31720) - http://www.bohemiancoding.com/sketch -->
    <title>Fill 5</title>
    <desc>Created with Sketch.</desc>
    <defs></defs>
    <g id="个人中心" stroke="none" stroke-width="1" fill="none" fill-rule="evenodd">
        <g id="个人中心-预约管理" transform="translate(-68.000000, -243.000000)" fill="#424242">
            <path d="M82.093,257.592 L82.093,259.712 L68.873,259.712 L68.873,243.873 L82.218,243.873 L82.218,247.614 L82.966,247.614 L82.966,243 L68,243 L68,260.461 L82.966,260.461 L82.966,257.592 L82.093,257.592 L82.093,257.592 Z M71.367,249.236 L74.734,249.236 L74.734,248.363 L71.367,248.363 L71.367,249.236 L71.367,249.236 Z M71.367,246.741 L79.723,246.741 L79.723,245.868 L71.367,245.868 L71.367,246.741 L71.367,246.741 Z M85.46,248.363 L76.73,248.363 L76.73,255.846 L77.603,255.846 L77.603,258.216 L80.097,255.846 L85.46,255.846 L85.46,248.363 L85.46,248.363 Z M84.587,249.236 L84.587,255.098 L79.723,255.098 L78.351,256.345 L78.351,255.098 L77.603,255.098 L77.603,249.236 L84.587,249.236 L84.587,249.236 Z M82.592,252.354 C82.592,252.728 82.841,252.977 83.215,252.977 C83.59,252.977 83.839,252.728 83.839,252.354 C83.839,251.98 83.59,251.73 83.215,251.73 C82.841,251.73 82.592,251.98 82.592,252.354 L82.592,252.354 Z M80.472,252.354 C80.472,252.728 80.721,252.977 81.095,252.977 C81.469,252.977 81.719,252.728 81.719,252.354 C81.719,251.98 81.469,251.73 81.095,251.73 C80.721,251.73 80.472,251.98 80.472,252.354 L80.472,252.354 Z M78.351,252.354 C78.351,252.728 78.726,252.977 78.975,252.977 C79.349,252.977 79.599,252.728 79.599,252.354 C79.599,251.98 79.349,251.73 78.975,251.73 C78.726,251.73 78.351,251.98 78.351,252.354 L78.351,252.354 Z" id="Fill-5"></path>
        </g>
    </g>
</svg>