<?xml version="1.0" encoding="UTF-8"?>
<svg width="18px" height="18px" viewBox="0 0 18 18" version="1.1" xmlns="http://www.w3.org/2000/svg" xmlns:xlink="http://www.w3.org/1999/xlink">
    <!-- Generator: Sketch 39.1 (31720) - http://www.bohemiancoding.com/sketch -->
    <title>Group 6</title>
    <desc>Created with Sketch.</desc>
    <defs></defs>
    <g id="个人中心" stroke="none" stroke-width="1" fill="none" fill-rule="evenodd">
        <g id="个人中心-预约管理" transform="translate(-68.000000, -243.000000)" fill="#FFFFFF">
            <g id="Group-6" transform="translate(68.000000, 243.000000)">
                <path d="M14.093,14.592 L14.093,16.712 L0.873,16.712 L0.873,0.873 L14.218,0.873 L14.218,4.614 L14.966,4.614 L14.966,0 L0,0 L0,17.461 L14.966,17.461 L14.966,14.592 L14.093,14.592 L14.093,14.592 Z M3.367,6.236 L6.734,6.236 L6.734,5.363 L3.367,5.363 L3.367,6.236 L3.367,6.236 Z M3.367,3.741 L11.723,3.741 L11.723,2.868 L3.367,2.868 L3.367,3.741 L3.367,3.741 Z M17.46,5.363 L8.73,5.363 L8.73,12.846 L9.603,12.846 L9.603,15.216 L12.097,12.846 L17.46,12.846 L17.46,5.363 L17.46,5.363 Z M16.587,6.236 L16.587,12.098 L11.723,12.098 L10.351,13.345 L10.351,12.098 L9.603,12.098 L9.603,6.236 L16.587,6.236 L16.587,6.236 Z M14.592,9.354 C14.592,9.728 14.841,9.977 15.215,9.977 C15.59,9.977 15.839,9.728 15.839,9.354 C15.839,8.98 15.59,8.73 15.215,8.73 C14.841,8.73 14.592,8.98 14.592,9.354 L14.592,9.354 Z M12.472,9.354 C12.472,9.728 12.721,9.977 13.095,9.977 C13.469,9.977 13.719,9.728 13.719,9.354 C13.719,8.98 13.469,8.73 13.095,8.73 C12.721,8.73 12.472,8.98 12.472,9.354 L12.472,9.354 Z M10.351,9.354 C10.351,9.728 10.726,9.977 10.975,9.977 C11.349,9.977 11.599,9.728 11.599,9.354 C11.599,8.98 11.349,8.73 10.975,8.73 C10.726,8.73 10.351,8.98 10.351,9.354 L10.351,9.354 Z" id="Fill-5"></path>
            </g>
        </g>
    </g>
</svg>