<?xml version="1.0" encoding="UTF-8"?>
<svg width="27px" height="26px" viewBox="0 0 27 26" version="1.1" xmlns="http://www.w3.org/2000/svg" xmlns:xlink="http://www.w3.org/1999/xlink">
    <!-- Generator: Sketch 39.1 (31720) - http://www.bohemiancoding.com/sketch -->
    <title>Group 16</title>
    <desc>Created with Sketch.</desc>
    <defs></defs>
    <g id="个人中心" stroke="none" stroke-width="1" fill="none" fill-rule="evenodd">
        <g id="个人中心-预约管理" transform="translate(-66.000000, -175.000000)" fill="#515151">
            <g id="Group-16" transform="translate(66.000000, 175.000000)">
                <path d="M18.8664629,15.57 C18.3644629,15.57 18.0294629,15.905 18.0294629,16.407 C18.0294629,18.081 16.0204629,19.756 13.6764629,19.756 C11.3324629,19.756 9.3234629,18.081 9.3234629,16.407 C9.3234629,15.905 8.9884629,15.57 8.4864629,15.57 C7.9834629,15.57 7.6494629,15.905 7.6494629,16.407 C7.6494629,19.086 10.4954629,21.43 13.6764629,21.43 C16.8574629,21.43 19.7034629,19.086 19.7034629,16.407 C19.7034629,15.905 19.3684629,15.57 18.8664629,15.57 M16.6894629,10.547 C16.6894629,11.287 17.2894629,11.887 18.0294629,11.887 C18.7694629,11.887 19.3684629,11.287 19.3684629,10.547 C19.3684629,9.808 18.7694629,9.208 18.0294629,9.208 C17.2894629,9.208 16.6894629,9.808 16.6894629,10.547 M8.3184629,10.547 C8.3184629,11.287 8.9184629,11.887 9.6584629,11.887 C10.3974629,11.887 10.9974629,11.287 10.9974629,10.547 C10.9974629,9.808 10.3974629,9.208 9.6584629,9.208 C8.9184629,9.208 8.3184629,9.808 8.3184629,10.547 M24.8934629,11.552 L24.7264629,11.719 L22.3824629,16.407 L22.2144629,17.077 L22.2144629,23.941 C22.2144629,24.109 22.0474629,24.109 22.0474629,24.109 L4.4684629,24.109 C4.3004629,24.109 4.3004629,23.941 4.3004629,23.941 L4.3004629,17.077 L4.1334629,16.24 L1.6214629,12.054 C1.6214629,11.887 1.6214629,11.384 1.7894629,11.217 L12.0024629,2.511 C12.8394629,1.841 14.1784629,1.841 15.0154629,2.511 L17.0244629,4.185 L18.3644629,5.19 C18.5314629,5.357 18.6994629,5.357 18.8664629,5.357 C19.3684629,5.357 19.7034629,5.022 19.7034629,4.52 L19.7034629,2.344 C19.7034629,1.841 20.0384629,1.506 20.5404629,1.506 L21.0424629,1.506 C21.5454629,1.506 21.8804629,1.841 21.8804629,2.344 L21.8804629,7.701 C21.8804629,7.869 21.8804629,8.036 22.0474629,8.203 L23.2194629,9.375 L24.7264629,10.882 C25.0614629,11.217 25.0614629,11.384 24.8934629,11.552 M25.8984629,9.71 L24.3914629,8.203 L23.5544629,7.534 L23.5544629,2.511 C23.5544629,1.172 22.3824629,0 21.0424629,0 L20.5404629,0 C19.2014629,0 18.0294629,1.172 18.0294629,2.511 L18.0294629,2.846 L16.1874629,1.339 C14.8484629,0.167 12.5044629,0.167 10.9974629,1.339 L0.784462904,10.045 C-0.052537096,10.715 -0.219537096,12.054 0.282462904,12.891 L2.6264629,17.244 L2.6264629,24.109 C2.6264629,25.113 3.4634629,25.95 4.4684629,25.95 L22.0474629,25.95 C23.0524629,25.95 23.8894629,25.113 23.8894629,24.109 L23.8894629,17.244 L26.4004629,12.556 C26.9024629,11.719 26.7354629,10.38 25.8984629,9.71" id="Fill-3"></path>
            </g>
        </g>
    </g>
</svg>