<?xml version="1.0" encoding="UTF-8"?>
<svg width="20px" height="18px" viewBox="0 0 20 18" version="1.1" xmlns="http://www.w3.org/2000/svg" xmlns:xlink="http://www.w3.org/1999/xlink">
    <!-- Generator: Sketch 39.1 (31720) - http://www.bohemiancoding.com/sketch -->
    <title>Group 7</title>
    <desc>Created with Sketch.</desc>
    <defs></defs>
    <g id="个人中心" stroke="none" stroke-width="1" fill="none" fill-rule="evenodd">
        <g id="个人中心-预约管理" transform="translate(-68.000000, -293.000000)" fill="#515151">
            <g id="Group-7" transform="translate(68.000000, 293.000000)">
                <path d="M1.8942,3.3302 C1.8942,2.8762 2.2632,2.5072 2.7172,2.5072 L4.2672,2.5072 L4.2672,4.2872 L5.4532,4.2872 L5.4532,2.5072 L12.5722,2.5072 L12.5722,4.2872 L13.7582,4.2872 L13.7582,2.5072 L15.3082,2.5072 C15.7622,2.5072 16.1312,2.8762 16.1312,3.3302 L16.1312,6.0662 L1.8942,6.0662 L1.8942,3.3302 Z M9.0512,15.5582 L2.7172,15.5582 C2.2632,15.5582 1.8942,15.1892 1.8942,14.7352 L1.8942,7.2532 L17.3182,7.2532 L17.3182,3.3302 C17.3182,2.2212 16.4172,1.3202 15.3082,1.3202 L13.7582,1.3202 L13.7582,0.1342 L12.5722,0.1342 L12.5722,1.3202 L5.4532,1.3202 L5.4532,0.1342 L4.2672,0.1342 L4.2672,1.3202 L2.7172,1.3202 C1.6092,1.3202 0.7082,2.2212 0.7082,3.3302 L0.7082,14.7352 C0.7082,15.8432 1.6092,16.7442 2.7172,16.7442 L9.0512,16.7442 C9.3802,16.7442 9.6452,16.4792 9.6452,16.1512 C9.6452,15.8232 9.3802,15.5582 9.0512,15.5582 L9.0512,15.5582 Z" id="Fill-8"></path>
                <polygon id="Fill-9" points="3.674 10.218 7.826 10.218 7.826 9.032 3.674 9.032"></polygon>
                <polygon id="Fill-10" points="3.674 13.778 7.826 13.778 7.826 12.592 3.674 12.592"></polygon>
                <polygon id="Fill-11" points="15.5381 10.8121 14.3521 10.8121 14.3521 12.5921 14.3521 13.7781 15.5381 13.7781 17.3181 13.7781 17.3181 12.5921 15.5381 12.5921"></polygon>
                <path d="M14.9449,16.7442 C12.9819,16.7442 11.3859,15.1482 11.3859,13.1852 C11.3859,11.2222 12.9819,9.6252 14.9449,9.6252 C16.9079,9.6252 18.5039,11.2222 18.5039,13.1852 C18.5039,15.1482 16.9079,16.7442 14.9449,16.7442 M18.2999,9.8292 C17.4029,8.9322 16.2129,8.4392 14.9449,8.4392 C13.6769,8.4392 12.4849,8.9322 11.5899,9.8292 C10.6919,10.7272 10.1989,11.9172 10.1989,13.1852 C10.1989,14.4532 10.6919,15.6452 11.5899,16.5402 C12.4869,17.4372 13.6769,17.9302 14.9449,17.9302 C16.2129,17.9302 17.4049,17.4372 18.2999,16.5402 C19.1979,15.6432 19.6909,14.4532 19.6909,13.1852 C19.6909,11.9172 19.1979,10.7252 18.2999,9.8292" id="Fill-12"></path>
            </g>
        </g>
    </g>
</svg>