<?xml version="1.0" encoding="UTF-8" standalone="no"?>
<svg width="166px" height="96px" viewBox="0 0 166 96" version="1.1" xmlns="http://www.w3.org/2000/svg" xmlns:xlink="http://www.w3.org/1999/xlink">
    <!-- Generator: Sketch 41.2 (35397) - http://www.bohemiancoding.com/sketch -->
    <title>Group 4</title>
    <desc>Created with Sketch.</desc>
    <defs></defs>
    <g id="合作驾校" stroke="none" stroke-width="1" fill="none" fill-rule="evenodd">
        <g id="合作驾校-驾校详情-驾校产品" transform="translate(-337.000000, -1000.000000)" fill="#515151">
            <g id="Group-4" transform="translate(337.000000, 1000.000000)">
                <path d="M37.5208194,87.1366909 L4.3171,1.841 C3.8691,0.69 2.5711,0.118 1.4241,0.57 C0.2751,1.017 -0.2949,2.311 0.1521,3.462 L34.9631,92.88 C35.3071,93.765 36.1521,94.306 37.0461,94.306 C37.2048336,94.306 37.3639103,94.2898751 37.5219234,94.2558167 C37.6793291,94.2900005 37.8377848,94.306 37.9959,94.306 C38.8929,94.306 39.7379,93.765 40.0789,92.88 L74.8899,3.46 C75.3389,2.311 74.7689,1.015 73.6179,0.568 C72.4709,0.114 71.1709,0.688 70.7259,1.839 L37.5208194,87.1366909 Z M91.7248,94.7218 C90.4888,94.7218 89.4898,93.7228 89.4898,92.4868 L89.4898,2.2348 C89.4898,1.0008 90.4888,-0.0002 91.7248,-0.0002 C92.9608,-0.0002 93.9598,1.0018 93.9598,2.2348 L93.9598,92.4868 C93.9598,93.7208 92.9588,94.7218 91.7248,94.7218 Z M114.0768,92.9026 L114.0768,52.5686 C114.0768,51.3326 115.0758,50.3336 116.3118,50.3336 C117.5478,50.3336 118.5468,51.3326 118.5468,52.5686 L118.5468,92.9026 C118.5468,94.1386 117.5458,95.1376 116.3118,95.1376 C115.0758,95.1376 114.0768,94.1386 114.0768,92.9026 Z" id="Combined-Shape"></path>
                <path d="M116.3096,54.8039 C115.0736,54.8039 114.0746,53.8049 114.0746,52.5689 C114.0746,51.3329 115.0736,50.3339 116.3096,50.3339 L138.3106,50.3339 C150.8296,50.3339 161.0126,40.1479 161.0126,27.6289 C161.0126,15.1099 150.8276,4.9239 138.3106,4.9239 L116.3096,4.9239 C115.0736,4.9239 114.0746,3.9219 114.0746,2.6889 C114.0746,1.4549 115.0736,0.4529 116.3096,0.4529 L138.3106,0.4529 C153.2926,0.4529 165.4836,12.6439 165.4836,27.6279 C165.4856,42.6129 153.2926,54.8039 138.3106,54.8039 L116.3096,54.8039 Z" id="Fill-10"></path>
            </g>
        </g>
    </g>
</svg>