<?xml version="1.0" encoding="UTF-8" standalone="no"?>
<svg width="70px" height="96px" viewBox="0 0 70 96" version="1.1" xmlns="http://www.w3.org/2000/svg" xmlns:xlink="http://www.w3.org/1999/xlink">
    <!-- Generator: Sketch 41.2 (35397) - http://www.bohemiancoding.com/sketch -->
    <title>Page 1</title>
    <desc>Created with Sketch.</desc>
    <defs>
        <polygon id="path-1" points="69.6523636 47.8602764 69.6523636 0.593454545 0 0.593454545 0 47.8602764 0 95.1270982 69.6523636 95.1270982 69.6523636 47.8602764"></polygon>
    </defs>
    <g id="合作驾校" stroke="none" stroke-width="1" fill="none" fill-rule="evenodd">
        <g id="合作驾校-驾校详情-驾校产品" transform="translate(-980.000000, -1000.000000)">
            <g id="Page-1" transform="translate(980.000000, 1000.000000)">
                <g id="Group-3" transform="translate(0.000000, 0.279273)">
                    <mask id="mask-2" fill="white">
                        <use xlink:href="#path-1"></use>
                    </mask>
                    <g id="Clip-2"></g>
                    <path d="M34.8218182,90.1525527 C18.3621818,90.1525527 4.97454545,77.29728 4.97454545,61.5096436 C4.97454545,45.71328 18.3621818,32.8667345 34.8218182,32.8667345 C51.2901818,32.8667345 64.6778182,45.71328 64.6778182,61.5096436 C64.6778182,77.29728 51.2901818,90.1525527 34.8218182,90.1525527 M5.664,26.0070982 L5.664,5.56782545 L63.9883636,5.56782545 L63.9883636,26.1990982 C62.2690909,27.9009164 58.9265455,30.9903709 54.6938182,33.90528 C49.056,30.1089164 42.2138182,27.8834618 34.8218182,27.8834618 C27.7265455,27.8834618 21.12,29.9430982 15.6130909,33.4689164 C11.1621818,30.6325527 7.57527273,27.6827345 5.664,26.0070982 M58.7781818,37.1169164 C64.8174545,32.7620073 68.8145455,28.3721891 68.9541818,28.2063709 L68.9629091,28.2063709 L68.9629091,1.57946182 C68.9629091,1.03837091 68.352,0.59328 67.584,0.59328 L2.05963636,0.59328 C1.30036364,0.59328 0.680727273,1.03837091 0.680727273,1.57946182 L0.680727273,28.2063709 L0.689454545,28.2063709 C0.829090909,28.3460073 5.07927273,32.4390982 11.3803636,36.6456436 C4.38981818,42.7983709 0,51.6565527 0,61.5096436 C0,80.0725527 15.5956364,95.1270982 34.8218182,95.1270982 C54.0567273,95.1270982 69.6523636,80.0725527 69.6523636,61.5096436 C69.6523636,51.9009164 65.472,43.2434618 58.7781818,37.1169164" id="Fill-1" fill="#515151" mask="url(#mask-2)"></path>
                </g>
                <path d="M54.3771927,70.9109236 C50.9054836,77.9163055 43.4358109,82.4379055 35.3421382,82.4379055 C23.7313745,82.4379055 14.2823564,73.4008145 14.2823564,62.2848873 C14.2823564,51.1680873 23.7313745,42.1301236 35.3421382,42.1301236 C42.8039564,42.1301236 49.5579927,45.79296 53.4102109,51.9221236 L57.62112,49.2795055 C53.0602473,42.0088145 44.7911564,37.1512145 35.3421382,37.1512145 C20.9595927,37.1512145 9.31042909,48.40416 9.31042909,62.2848873 C9.31042909,76.1647418 20.9595927,87.4176873 35.3421382,87.4176873 C45.69792,87.4176873 54.6433745,81.5782691 58.8385745,73.1267782 L54.3771927,70.9109236 Z" id="Fill-4" fill="#515151"></path>
            </g>
        </g>
    </g>
</svg>