<?xml version="1.0" encoding="UTF-8"?>
<svg width="24px" height="24px" viewBox="0 0 24 24" version="1.1" xmlns="http://www.w3.org/2000/svg" xmlns:xlink="http://www.w3.org/1999/xlink">
    <!-- Generator: Sketch 39.1 (31720) - http://www.bohemiancoding.com/sketch -->
    <title>Combined Shape</title>
    <desc>Created with Sketch.</desc>
    <defs>
        <path d="M305.553503,101.643963 L295.453244,96.593834 C295.484016,96.4004194 295.5,96.2020763 295.5,96 C295.5,95.7979237 295.484016,95.5995806 295.453244,95.406166 L305.553503,90.3560369 C306.235356,91.0614087 307.191459,91.5 308.25,91.5 C310.321068,91.5 312,89.8210678 312,87.75 C312,85.6789322 310.321068,84 308.25,84 C306.178932,84 304.5,85.6789322 304.5,87.75 C304.5,87.9520763 304.515984,88.1504194 304.546756,88.343834 L294.446497,93.3939631 C293.764644,92.6885913 292.808541,92.25 291.75,92.25 C289.678932,92.25 288,93.9289322 288,96 C288,98.0710678 289.678932,99.75 291.75,99.75 C292.808541,99.75 293.764644,99.3114087 294.446497,98.6060369 L304.546756,103.656166 C304.515984,103.849581 304.5,104.047924 304.5,104.25 C304.5,106.321068 306.178932,108 308.25,108 C310.321068,108 312,106.321068 312,104.25 C312,102.178932 310.321068,100.5 308.25,100.5 C307.191459,100.5 306.235356,100.938591 305.553503,101.643963 Z" id="path-1"></path>
        <mask id="mask-2" maskContentUnits="userSpaceOnUse" maskUnits="objectBoundingBox" x="0" y="0" width="24" height="24" fill="white">
            <use xlink:href="#path-1"></use>
        </mask>
    </defs>
    <g id="抢红包-2" stroke="none" stroke-width="1" fill="none" fill-rule="evenodd">
        <g id="抢红包" transform="translate(-288.000000, -84.000000)" stroke="#F8BA2A" stroke-width="2">
            <use id="Combined-Shape" mask="url(#mask-2)" xlink:href="#path-1"></use>
        </g>
    </g>
</svg>