<?xml version="1.0" encoding="UTF-8" standalone="no"?>
<svg width="14px" height="14px" viewBox="0 0 14 14" version="1.1" xmlns="http://www.w3.org/2000/svg" xmlns:xlink="http://www.w3.org/1999/xlink">
    <!-- Generator: Sketch 41.2 (35397) - http://www.bohemiancoding.com/sketch -->
    <title>Fill 14</title>
    <desc>Created with Sketch.</desc>
    <defs></defs>
    <g id="合作驾校" stroke="none" stroke-width="1" fill="none" fill-rule="evenodd">
        <g id="合作驾校-驾校详情-教练风采" transform="translate(-185.000000, -1250.000000)" fill="#515151">
            <path d="M188.424227,1250 C187.929617,1250 187.430706,1250.17408 187.003836,1250.52531 C186.65976,1250.80793 186.329662,1251.10489 185.978058,1251.38239 C185.389903,1251.84523 185.093137,1252.44427 185.022171,1253.15389 C184.914647,1254.22396 185.210338,1255.22338 185.646885,1256.19002 C186.560838,1258.2165 187.966175,1259.90916 189.687633,1261.37551 C190.966092,1262.46504 192.370354,1263.3682 194.055253,1263.81466 C194.46922,1263.92422 194.888563,1264 195.306831,1264 C195.632629,1264 195.959501,1263.95392 196.280998,1263.84128 C197.615369,1263.24327 198.235782,1262.46709 198.302447,1262.40872 C199.17124,1261.63253 199.235754,1260.47952 198.455131,1259.62142 C198.242234,1259.3859 198.022885,1259.15652 197.801386,1258.9292 C197.347635,1258.46431 196.783134,1258.22879 196.212182,1258.22879 C195.711121,1258.22879 195.204684,1258.40901 194.76276,1258.77458 C194.429436,1259.04696 194.092887,1259.31831 193.776766,1259.6081 C193.636985,1259.73508 193.488602,1259.79754 193.329467,1259.79754 C193.257426,1259.79754 193.183234,1259.78423 193.106892,1259.75965 C192.814427,1259.66135 192.515511,1259.56202 192.248852,1259.41355 C191.261782,1258.85854 190.496212,1258.08645 189.876875,1257.18329 C189.567206,1256.73581 189.323127,1256.25658 189.229581,1255.72001 C189.183346,1255.44661 189.234957,1255.22542 189.486563,1255.03701 C189.83279,1254.77999 190.152136,1254.48917 190.477933,1254.2086 C191.368231,1253.43958 191.440272,1252.22308 190.648896,1251.366 C190.428472,1251.12844 190.206973,1250.89087 189.977947,1250.66047 C189.538175,1250.22221 188.984426,1250 188.424227,1250 M188.424227,1250.74035 C188.784432,1250.74035 189.136035,1250.89394 189.413447,1251.17042 C189.620968,1251.37932 189.824188,1251.5964 190.065042,1251.85547 C190.574705,1252.40638 190.52847,1253.16516 189.956442,1253.65974 L189.753222,1253.83587 C189.499466,1254.05705 189.258612,1254.26594 189.005931,1254.45436 C188.690886,1254.6909 188.339283,1255.12303 188.46186,1255.84084 C188.562933,1256.41735 188.812388,1256.98976 189.22528,1257.58879 C189.967195,1258.6691 190.827386,1259.47396 191.85639,1260.05252 C192.186488,1260.23683 192.538091,1260.35459 192.852061,1260.45904 C193.011196,1260.51126 193.171407,1260.53789 193.329467,1260.53789 C193.582148,1260.53789 193.957406,1260.46928 194.315461,1260.14263 C194.590722,1259.89073 194.881037,1259.65316 195.188555,1259.40228 L195.272424,1259.33367 C195.561663,1259.09508 195.886385,1258.96913 196.212182,1258.96913 C196.58314,1258.96913 196.935818,1259.1299 197.231509,1259.43403 C197.486341,1259.69412 197.68741,1259.90813 197.866975,1260.10679 C198.370187,1260.65872 198.331478,1261.36732 197.77558,1261.86293 C197.758376,1261.87829 197.723968,1261.91106 197.675583,1261.96431 C197.227208,1262.44763 196.657331,1262.84903 195.982081,1263.15623 C195.773485,1263.22484 195.551986,1263.25863 195.306831,1263.25863 C195.00684,1263.25863 194.664914,1263.20743 194.26385,1263.10094 C192.891845,1262.73742 191.602633,1262.01346 190.205898,1260.82358 C188.432829,1259.31217 187.174799,1257.70143 186.360843,1255.89819 C185.889889,1254.85269 185.7157,1254.02838 185.796343,1253.22455 C185.85118,1252.67774 186.066228,1252.27428 186.474819,1251.95275 C186.693092,1251.7797 186.902764,1251.60152 187.104909,1251.42847 C187.240389,1251.31378 187.374794,1251.19807 187.512424,1251.08543 C187.78661,1250.86015 188.101655,1250.74035 188.424227,1250.74035" id="Fill-14"></path>
        </g>
    </g>
</svg>