<?xml version="1.0" encoding="UTF-8" standalone="no"?>
<svg width="13px" height="15px" viewBox="0 0 13 15" version="1.1" xmlns="http://www.w3.org/2000/svg" xmlns:xlink="http://www.w3.org/1999/xlink">
    <!-- Generator: Sketch 41.2 (35397) - http://www.bohemiancoding.com/sketch -->
    <title>Group 12</title>
    <desc>Created with Sketch.</desc>
    <defs></defs>
    <g id="合作驾校" stroke="none" stroke-width="1" fill="none" fill-rule="evenodd">
        <g id="合作驾校-驾校详情-教练风采" transform="translate(-207.000000, -1225.000000)" fill="#515151">
            <g id="Group-12" transform="translate(207.000000, 1225.000000)">
                <path d="M6.4706,0.784 C4.6116,0.784 3.0986,2.296 3.0986,4.156 C3.0986,6.015 4.6116,7.528 6.4706,7.528 C8.3296,7.528 9.8426,6.015 9.8426,4.156 C9.8426,2.296 8.3296,0.784 6.4706,0.784 M6.4706,8.277 C4.1986,8.277 2.3496,6.428 2.3496,4.156 C2.3496,1.883 4.1986,0.035 6.4706,0.035 C8.7426,0.035 10.5916,1.883 10.5916,4.156 C10.5916,6.428 8.7426,8.277 6.4706,8.277" id="Fill-9"></path>
                <path d="M12.4649,14.2711 C12.2579,14.2711 12.0899,14.1031 12.0899,13.8961 C12.0899,10.7981 9.5699,8.2771 6.4709,8.2771 C3.3719,8.2771 0.8509,10.7981 0.8509,13.8961 C0.8509,14.1031 0.6839,14.2711 0.4759,14.2711 C0.2689,14.2711 0.1019,14.1031 0.1019,13.8961 C0.1019,10.3841 2.9589,7.5271 6.4709,7.5271 C9.9829,7.5271 12.8399,10.3841 12.8399,13.8961 C12.8399,14.1031 12.6719,14.2711 12.4649,14.2711" id="Fill-11"></path>
            </g>
        </g>
    </g>
</svg>