<?xml version="1.0" encoding="UTF-8" standalone="no"?>
<svg width="161px" height="161px" viewBox="0 0 161 161" version="1.1" xmlns="http://www.w3.org/2000/svg" xmlns:xlink="http://www.w3.org/1999/xlink">
    <!-- Generator: Sketch 41.2 (35397) - http://www.bohemiancoding.com/sketch -->
    <title>Group 13</title>
    <desc>Created with Sketch.</desc>
    <defs></defs>
    <g id="乖乖视频" stroke="none" stroke-width="1" fill="none" fill-rule="evenodd">
        <g transform="translate(-280.000000, -338.000000)" id="Group-13">
            <g transform="translate(280.000000, 338.000000)">
                <path d="M80.198,0 C35.906,0 0,35.906 0,80.198 C0,124.49 35.906,160.396 80.198,160.396 C124.49,160.396 160.396,124.49 160.396,80.198 C160.396,35.906 124.49,0 80.198,0 M80.198,2 C123.317,2 158.396,37.079 158.396,80.198 C158.396,123.316 123.317,158.396 80.198,158.396 C37.079,158.396 2,123.316 2,80.198 C2,37.079 37.079,2 80.198,2" id="Fill-15" fill="#FFFFFF"></path>
                <path d="M60.57,41.6834178 L120.431,76.2444178 C123.795,78.1864178 123.795,83.0424178 120.431,84.9844178 L60.57,119.545418 C57.206,121.487418 53,119.059418 53,115.174418 L53,46.0534178 C53,42.1694178 57.206,39.7414178 60.57,41.6834178 L60.57,41.6834178 Z" id="Stroke-17" stroke="#FFFFFF" stroke-width="2"></path>
            </g>
        </g>
    </g>
</svg>