<?xml version="1.0" encoding="UTF-8"?>
<svg width="15px" height="20px" viewBox="0 0 15 20" version="1.1" xmlns="http://www.w3.org/2000/svg" xmlns:xlink="http://www.w3.org/1999/xlink">
    <!-- Generator: Sketch 39.1 (31720) - http://www.bohemiancoding.com/sketch -->
    <title>Group</title>
    <desc>Created with Sketch.</desc>
    <defs></defs>
    <g id="培训预约" stroke="none" stroke-width="1" fill="none" fill-rule="evenodd">
        <g id="预约培训" transform="translate(-257.000000, -10.000000)" fill="#F39800">
            <g id="Group-10" transform="translate(257.000000, 10.000000)">
                <g id="Group">
                    <path d="M14.2758,15.5957 C14.2758,15.5957 12.6148,12.7777 11.2238,13.5807 L10.1668,14.1917 L13.2848,17.9787 L12.9688,18.2387 L14.3848,17.4207 C15.1678,16.9697 14.7278,16.3777 14.2758,15.5957 L14.2758,15.5957 Z M5.2608,5.6937 L6.3178,5.0827 C7.5148,4.3917 6.0988,1.4327 6.0988,1.4327 C5.6468,0.6507 5.3548,-0.0263 4.5728,0.4247 L3.1568,1.2427 L3.5398,1.0997 L5.2608,5.6937 L5.2608,5.6937 Z M9.8078,14.3987 C8.2438,15.3017 6.8108,14.1137 5.2298,11.3757 C3.6498,8.6387 3.3368,6.8037 4.9018,5.9007 L4.5188,6.0437 L2.7978,1.4497 L2.4488,1.6517 C2.3278,1.7217 1.8778,1.9807 1.7398,2.0607 C-0.9972,3.6417 0.3958,7.9097 3.1058,12.6027 C5.8158,17.2957 8.8148,20.6367 11.5528,19.0567 C11.6908,18.9767 12.1398,18.7167 12.2608,18.6477 L12.6098,18.4457 L9.4918,14.6587 L9.8078,14.3987 L9.8078,14.3987 Z" id="Fill-93"></path>
                </g>
            </g>
        </g>
    </g>
</svg>